<svg version="1.1" xmlns="http://www.w3.org/2000/svg" viewBox="0 0 321.27769470214844 194.0840606689453" width="642.5553894042969" height="388.1681213378906">
  <!-- svg-source:excalidraw -->
  
  <defs>
    <style>
      @font-face {
        font-family: "Virgil";
        src: url("https://excalidraw.com/Virgil.woff2");
      }
      @font-face {
        font-family: "Cascadia";
        src: url("https://excalidraw.com/Cascadia.woff2");
      }
    </style>
  </defs>
  <g stroke-linecap="round" transform="translate(10 10) rotate(0 90.85011291503906 84.53746032714844)"><path d="M115.72 2.79 C127.52 4.45, 139.58 12.53, 149.1 19.78 C158.61 27.02, 167.26 36.12, 172.82 46.26 C178.38 56.4, 181.92 68.87, 182.44 80.6 C182.97 92.32, 180.7 105.92, 175.95 116.59 C171.2 127.26, 162.71 136.92, 153.93 144.62 C145.14 152.32, 134.84 158.91, 123.22 162.81 C111.61 166.71, 96.81 168.74, 84.23 168.03 C71.66 167.32, 58.51 163.83, 47.79 158.56 C37.07 153.29, 27.44 145.31, 19.93 136.41 C12.41 127.5, 5.82 115.98, 2.68 105.11 C-0.46 94.25, -0.89 82.5, 1.09 71.23 C3.06 59.96, 7.61 47.04, 14.54 37.48 C21.47 27.92, 32.15 19.98, 42.65 13.87 C53.14 7.75, 64.56 2.39, 77.51 0.78 C90.46 -0.83, 112.22 3.03, 120.35 4.18 C128.48 5.33, 126.51 6.28, 126.27 7.66 M84.38 0.79 C96.14 -1.08, 110.51 2.64, 122.37 6.49 C134.23 10.34, 146.93 16.19, 155.53 23.88 C164.13 31.58, 169.88 42.15, 174 52.65 C178.11 63.14, 180.59 75.35, 180.21 86.88 C179.83 98.41, 176.66 111.52, 171.71 121.81 C166.76 132.11, 159.63 141.55, 150.52 148.65 C141.42 155.75, 129.05 160.93, 117.09 164.41 C105.12 167.88, 91.1 170.89, 78.73 169.53 C66.36 168.16, 53.31 162.42, 42.86 156.21 C32.41 150.01, 23.17 141.72, 16.04 132.3 C8.91 122.88, 2.18 111.34, 0.08 99.71 C-2.02 88.08, 0.13 73.84, 3.46 62.52 C6.79 51.21, 12.74 40.67, 20.07 31.83 C27.39 22.99, 36.7 14.97, 47.42 9.49 C58.13 4.02, 77.96 0.36, 84.36 -1 C90.77 -2.36, 85.78 -0.43, 85.86 1.36" stroke="#5c940d" stroke-width="1" fill="none"></path></g><g stroke-linecap="round" transform="translate(129.5774688720703 15.009140014648438) rotate(0 90.85011291503906 84.53746032714844)"><path d="M71.56 2.73 C82.7 -1.06, 97.04 -0.25, 108.93 1.78 C120.82 3.82, 133.02 8.46, 142.91 14.96 C152.8 21.46, 161.82 30.96, 168.27 40.81 C174.71 50.66, 180.08 62.75, 181.59 74.05 C183.1 85.36, 180.86 97.64, 177.31 108.64 C173.75 119.63, 168.33 131.37, 160.24 140.01 C152.15 148.65, 140.07 155.58, 128.76 160.46 C117.45 165.34, 104.82 169.07, 92.41 169.28 C79.99 169.49, 65.65 166.19, 54.25 161.73 C42.84 157.27, 32.34 150.82, 23.97 142.51 C15.6 134.19, 7.87 122.9, 4.01 111.85 C0.15 100.8, -0.43 87.58, 0.82 76.21 C2.08 64.84, 5.67 53.67, 11.55 43.63 C17.43 33.59, 23.64 23.21, 36.08 15.97 C48.53 8.73, 75.24 2.58, 86.22 0.19 C97.2 -2.21, 101.9 0.11, 101.97 1.61 M48.67 10.23 C58.86 4.04, 74.83 1.7, 87.12 0.89 C99.41 0.09, 111.1 1.29, 122.42 5.39 C133.74 9.5, 146.23 17.64, 155.04 25.51 C163.85 33.39, 170.93 42.2, 175.29 52.65 C179.65 63.11, 181.99 76.36, 181.2 88.23 C180.41 100.09, 175.93 113.52, 170.56 123.86 C165.2 134.2, 158.25 142.97, 149.02 150.27 C139.79 157.56, 127.21 164.8, 115.19 167.6 C103.18 170.41, 89.18 169.05, 76.91 167.09 C64.65 165.14, 52.08 161.74, 41.63 155.85 C31.17 149.96, 20.75 141.32, 14.18 131.75 C7.61 122.17, 4.2 109.81, 2.21 98.38 C0.22 86.95, -0.84 74.45, 2.24 63.16 C5.32 51.87, 12.92 39.62, 20.7 30.65 C28.49 21.67, 44.15 12.82, 48.94 9.32 C53.73 5.83, 48.9 8.18, 49.46 9.66" stroke="#c92a2a" stroke-width="1" fill="none"></path></g><g transform="translate(24.223968505859375 79.60757446289062) rotate(314.80458656536786 49 12.5)"><text x="0" y="18" font-family="Virgil, Segoe UI Emoji" font-size="20px" fill="#5c940d" text-anchor="start" style="white-space: pre;" direction="ltr">Chocolate</text></g><g transform="translate(77.46145629882812 139.9920654296875) rotate(0 22 12.5)"><text x="0" y="18" font-family="Virgil, Segoe UI Emoji" font-size="20px" fill="#5c940d" text-anchor="start" style="white-space: pre;" direction="ltr">beef</text></g><g transform="translate(200.85861206054688 31.693878173828125) rotate(0 28 12.5)"><text x="0" y="18" font-family="Virgil, Segoe UI Emoji" font-size="20px" fill="#c92a2a" text-anchor="start" style="white-space: pre;" direction="ltr">salad</text></g><g transform="translate(212.28701782226562 96.14202880859375) rotate(0 27.5 12.5)"><text x="0" y="18" font-family="Virgil, Segoe UI Emoji" font-size="20px" fill="#c92a2a" text-anchor="start" style="white-space: pre;" direction="ltr">olives</text></g><g transform="translate(124.21994018554688 85.5548095703125) rotate(287.55101309003294 33 12.5)"><text x="0" y="18" font-family="Virgil, Segoe UI Emoji" font-size="20px" fill="#e67700" text-anchor="start" style="white-space: pre;" direction="ltr">berries</text></g></svg>