<svg version="1.1" xmlns="http://www.w3.org/2000/svg" viewBox="0 0 446.1612285267221 262.3097131902522" width="892.3224570534442" height="524.6194263805044">
  <!-- svg-source:excalidraw -->
  
  <defs>
    <style>
      @font-face {
        font-family: "Virgil";
        src: url("https://excalidraw.com/Virgil.woff2");
      }
      @font-face {
        font-family: "Cascadia";
        src: url("https://excalidraw.com/Cascadia.woff2");
      }
    </style>
  </defs>
  <g stroke-linecap="round" transform="translate(10 10.000000000000028) rotate(0 127.04355829412293 114.7763436057351)"><path d="M161.69 3.91 C175.63 5.5, 189.57 14.28, 201.37 21.84 C213.17 29.4, 224.24 38.59, 232.5 49.26 C240.76 59.93, 247.34 72.91, 250.95 85.86 C254.56 98.81, 255.77 113.91, 254.13 126.95 C252.5 139.99, 247.39 152.61, 241.14 164.1 C234.89 175.59, 227.06 186.81, 216.63 195.87 C206.21 204.94, 192.06 213.06, 178.59 218.48 C165.11 223.89, 150.02 227.33, 135.77 228.37 C121.52 229.41, 106.91 228.17, 93.08 224.72 C79.26 221.27, 64.69 215.06, 52.83 207.67 C40.97 200.28, 30.2 191.18, 21.94 180.4 C13.68 169.62, 6.75 155.7, 3.26 143 C-0.22 130.31, -0.5 117.22, 1.02 104.21 C2.53 91.2, 6.32 77, 12.37 64.96 C18.41 52.92, 26.91 41.25, 37.28 31.96 C47.64 22.68, 61.08 14.62, 74.55 9.28 C88.01 3.94, 102.46 0.53, 118.06 -0.06 C133.66 -0.66, 158.77 3.96, 168.15 5.72 C177.54 7.48, 174.97 8.56, 174.37 10.49 M181.14 11.08 C193.91 14.74, 206.47 24.54, 216.64 33.99 C226.81 43.44, 235.74 55.85, 242.15 67.78 C248.56 79.71, 253.7 92.79, 255.11 105.59 C256.52 118.38, 254.68 131.61, 250.62 144.54 C246.56 157.46, 239.41 172.29, 230.77 183.15 C222.13 194.01, 210.76 202.47, 198.77 209.71 C186.79 216.95, 173.15 223.3, 158.85 226.61 C144.56 229.92, 127.38 231.23, 113 229.57 C98.62 227.92, 85.26 222.57, 72.55 216.69 C59.84 210.8, 47.12 203.46, 36.75 194.27 C26.38 185.08, 16.42 173.58, 10.31 161.54 C4.2 149.5, 0.82 135.13, 0.08 122.05 C-0.66 108.97, 1.97 95.28, 5.88 83.06 C9.79 70.85, 14.99 59.36, 23.52 48.77 C32.05 38.19, 45.11 27.14, 57.07 19.55 C69.03 11.97, 81.58 6.58, 95.29 3.25 C108.99 -0.08, 124.79 -1.83, 139.31 -0.42 C153.83 0.98, 175.64 9.5, 182.41 11.7 C189.17 13.9, 180.74 11.21, 179.9 12.78" stroke="#5c940d" stroke-width="1" fill="none"></path></g><g stroke-linecap="round" transform="translate(125.38990228826322 15.070175170898608) rotate(0 155.38566311922943 118.6197690096768)"><path d="M121.72 3.59 C136.79 -1.06, 155.85 -0.33, 172.38 0.86 C188.91 2.05, 205.84 5.36, 220.9 10.7 C235.95 16.04, 250.48 23.97, 262.71 32.9 C274.94 41.82, 286.59 52.89, 294.28 64.24 C301.97 75.6, 306.39 88.29, 308.84 101.04 C311.29 113.79, 312.12 128.13, 308.97 140.74 C305.83 153.36, 298.46 165.52, 289.98 176.72 C281.5 187.93, 270.84 199.45, 258.1 207.96 C245.36 216.47, 229.17 222.86, 213.54 227.78 C197.91 232.7, 181.08 236.64, 164.3 237.49 C147.51 238.33, 128.93 236.52, 112.85 232.87 C96.78 229.23, 81.54 222.84, 67.84 215.61 C54.13 208.39, 40.76 199.86, 30.62 189.51 C20.49 179.17, 12.12 165.83, 7.02 153.56 C1.92 141.3, -0.43 128.72, 0.05 115.92 C0.52 103.13, 4.06 88.74, 9.88 76.79 C15.71 64.84, 24.57 54.19, 35.01 44.23 C45.45 34.26, 54.57 24.38, 72.52 17 C90.46 9.61, 127.5 2.19, 142.67 -0.09 C157.85 -2.38, 163.39 1.32, 163.55 3.28 M145.61 -1.26 C161.34 -4.11, 180.38 -0.17, 196.43 3.67 C212.48 7.51, 227.82 14.42, 241.91 21.8 C255.99 29.17, 270.59 37.56, 280.96 47.93 C291.33 58.29, 299.14 71.95, 304.13 84 C309.12 96.06, 311.35 107.6, 310.89 120.25 C310.43 132.91, 307.29 147.54, 301.37 159.93 C295.45 172.32, 285.82 184.59, 275.35 194.58 C264.89 204.56, 252.91 213.15, 238.58 219.83 C224.26 226.5, 205.88 231.95, 189.4 234.61 C172.92 237.28, 156.39 237.21, 139.71 235.81 C123.03 234.42, 104.8 231.71, 89.32 226.24 C73.84 220.77, 59.06 211.68, 46.81 203.01 C34.57 194.34, 23.47 185.55, 15.86 174.23 C8.25 162.9, 3.13 148.07, 1.14 135.08 C-0.85 122.1, 0.9 108.81, 3.92 96.3 C6.95 83.79, 11.1 71.04, 19.3 60.02 C27.5 49, 40.4 38.61, 53.12 30.17 C65.83 21.74, 80.34 14.34, 95.6 9.39 C110.86 4.44, 136.08 1.74, 144.67 0.45 C153.27 -0.83, 146.88 -0.15, 147.19 1.7" stroke="#c92a2a" stroke-width="1" fill="none"></path></g><g transform="translate(45.31516233739649 85.66232476323054) rotate(348.40297948826554 39.821012464203704 36.20092042200335)"><text x="0" y="13.100460211001682" font-family="Virgil, Segoe UI Emoji" font-size="14.480368168801336px" fill="#5c940d" text-anchor="start" style="white-space: pre;" direction="ltr">{ </text><text x="0" y="31.200920422003364" font-family="Virgil, Segoe UI Emoji" font-size="14.480368168801336px" fill="#5c940d" text-anchor="start" style="white-space: pre;" direction="ltr"> name,</text><text x="0" y="49.301380633005046" font-family="Virgil, Segoe UI Emoji" font-size="14.480368168801336px" fill="#5c940d" text-anchor="start" style="white-space: pre;" direction="ltr"> litterBox </text><text x="0" y="67.40184084400673" font-family="Virgil, Segoe UI Emoji" font-size="14.480368168801336px" fill="#5c940d" text-anchor="start" style="white-space: pre;" direction="ltr">}</text></g><g transform="translate(290.870724764737 85.23182816938922) rotate(0 48 50)"><text x="0" y="18" font-family="Virgil, Segoe UI Emoji" font-size="20px" fill="#c92a2a" text-anchor="start" style="white-space: pre;" direction="ltr">{</text><text x="0" y="43" font-family="Virgil, Segoe UI Emoji" font-size="20px" fill="#c92a2a" text-anchor="start" style="white-space: pre;" direction="ltr"> name</text><text x="0" y="68" font-family="Virgil, Segoe UI Emoji" font-size="20px" fill="#c92a2a" text-anchor="start" style="white-space: pre;" direction="ltr"> walkTime</text><text x="0" y="93" font-family="Virgil, Segoe UI Emoji" font-size="20px" fill="#c92a2a" text-anchor="start" style="white-space: pre;" direction="ltr">}</text></g><g transform="translate(152.93336025220128 69.71448988277118) rotate(357.1960501951608 50 62.5)"><text x="0" y="18" font-family="Virgil, Segoe UI Emoji" font-size="20px" fill="#e67700" text-anchor="start" style="white-space: pre;" direction="ltr">{</text><text x="0" y="43" font-family="Virgil, Segoe UI Emoji" font-size="20px" fill="#e67700" text-anchor="start" style="white-space: pre;" direction="ltr"> name</text><text x="0" y="68" font-family="Virgil, Segoe UI Emoji" font-size="20px" fill="#e67700" text-anchor="start" style="white-space: pre;" direction="ltr"> litterBox</text><text x="0" y="93" font-family="Virgil, Segoe UI Emoji" font-size="20px" fill="#e67700" text-anchor="start" style="white-space: pre;" direction="ltr"> walkTime</text><text x="0" y="118" font-family="Virgil, Segoe UI Emoji" font-size="20px" fill="#e67700" text-anchor="start" style="white-space: pre;" direction="ltr">}</text></g></svg>